<svg xmlns="http://www.w3.org/2000/svg" viewBox="0 0 100 100">
    <path stroke="currentColor" id="svg_1"
          d="m73.30659,87.85058l14.54841,0c0,-41.74605 -33.96395,-75.74533 -75.71001,-75.74533l0,14.53074c33.70778,-0.01767 61.1616,27.47149 61.1616,61.21459zm-51.074,0.04417c2.66765,0 5.2293,-1.05116 7.13729,-2.93264c1.88149,-1.88149 2.95032,-4.45197 2.95032,-7.11963c-0.01767,-5.56496 -4.54031,-10.06992 -10.0876,-10.06992c-5.56496,0.01766 -10.06993,4.52263 -10.0876,10.06992c0,2.66766 1.06883,5.22931 2.95031,7.11963c1.88149,1.88148 4.4608,2.93264 7.12845,2.93264l0.00883,0zm25.33383,-0.0265l14.56607,0c0,-27.58632 -22.43652,-50.00517 -49.9875,-50.00517l0,14.51307c9.44277,0 18.33788,3.68348 25.0335,10.39676a35.29424,35.29424 0 0 1 10.38793,25.09533z"
          stroke-width="3.9" stroke-linejoin="round" fill="none"/>
</svg>